<svg xmlns="http://www.w3.org/2000/svg" xmlns:xlink="http://www.w3.org/1999/xlink" width="500" zoomAndPan="magnify" viewBox="0 0 375 374.999991" height="500" preserveAspectRatio="xMidYMid meet" version="1.0"><defs><g/><clipPath id="a2c22e440e"><path d="M 40 76 L 335 76 L 335 299 L 40 299 Z M 40 76 " clip-rule="nonzero"/></clipPath><clipPath id="94acd3caf7"><path d="M 37.5 100.296875 L 37.5 274.703125 C 37.5 289.203125 49.253906 300.953125 63.75 300.953125 L 311.25 300.953125 C 325.746094 300.953125 337.5 289.203125 337.5 274.703125 L 337.5 100.296875 C 337.5 85.796875 325.746094 74.046875 311.25 74.046875 L 63.75 74.046875 C 49.253906 74.046875 37.5 85.796875 37.5 100.296875 Z M 37.5 100.296875 " clip-rule="nonzero"/></clipPath><clipPath id="afe2fc321a"><path d="M 64.648438 74.945312 L 310.351562 74.945312 C 324.847656 74.945312 336.601562 86.699219 336.601562 101.195312 L 336.601562 273.804688 C 336.601562 288.300781 324.847656 300.054688 310.351562 300.054688 L 64.648438 300.054688 C 50.152344 300.054688 38.398438 288.300781 38.398438 273.804688 L 38.398438 101.195312 C 38.398438 86.699219 50.152344 74.945312 64.648438 74.945312 Z M 64.648438 74.945312 " clip-rule="nonzero"/></clipPath><clipPath id="8cd2f2a988"><path d="M 38.25 74.796875 L 336.75 74.796875 L 336.75 300.546875 L 38.25 300.546875 Z M 38.25 74.796875 " clip-rule="nonzero"/></clipPath><clipPath id="8c4e6b7fbd"><path d="M 37.5 100.296875 L 37.5 274.703125 C 37.5 289.203125 49.253906 300.953125 63.75 300.953125 L 311.25 300.953125 C 325.746094 300.953125 337.5 289.203125 337.5 274.703125 L 337.5 100.296875 C 337.5 85.796875 325.746094 74.046875 311.25 74.046875 L 63.75 74.046875 C 49.253906 74.046875 37.5 85.796875 37.5 100.296875 Z M 37.5 100.296875 " clip-rule="nonzero"/></clipPath><clipPath id="c9eff2be8c"><path d="M 64.648438 74.945312 L 310.351562 74.945312 C 324.847656 74.945312 336.601562 86.699219 336.601562 101.195312 L 336.601562 273.804688 C 336.601562 288.300781 324.847656 300.054688 310.351562 300.054688 L 64.648438 300.054688 C 50.152344 300.054688 38.398438 288.300781 38.398438 273.804688 L 38.398438 101.195312 C 38.398438 86.699219 50.152344 74.945312 64.648438 74.945312 Z M 64.648438 74.945312 " clip-rule="nonzero"/></clipPath><clipPath id="2d9d11d96c"><path d="M 38.25 109 L 336.75 109 L 336.75 211 L 38.25 211 Z M 38.25 109 " clip-rule="nonzero"/></clipPath><clipPath id="3fecc69c85"><path d="M 37.5 100.296875 L 37.5 274.703125 C 37.5 289.203125 49.253906 300.953125 63.75 300.953125 L 311.25 300.953125 C 325.746094 300.953125 337.5 289.203125 337.5 274.703125 L 337.5 100.296875 C 337.5 85.796875 325.746094 74.046875 311.25 74.046875 L 63.75 74.046875 C 49.253906 74.046875 37.5 85.796875 37.5 100.296875 Z M 37.5 100.296875 " clip-rule="nonzero"/></clipPath><clipPath id="30c0b8cae7"><path d="M 64.648438 74.945312 L 310.351562 74.945312 C 324.847656 74.945312 336.601562 86.699219 336.601562 101.195312 L 336.601562 273.804688 C 336.601562 288.300781 324.847656 300.054688 310.351562 300.054688 L 64.648438 300.054688 C 50.152344 300.054688 38.398438 288.300781 38.398438 273.804688 L 38.398438 101.195312 C 38.398438 86.699219 50.152344 74.945312 64.648438 74.945312 Z M 64.648438 74.945312 " clip-rule="nonzero"/></clipPath><clipPath id="5b0a4ce741"><path d="M 58 189 L 162 189 L 162 300.546875 L 58 300.546875 Z M 58 189 " clip-rule="nonzero"/></clipPath><clipPath id="3b7ab253b7"><path d="M 37.5 100.296875 L 37.5 274.703125 C 37.5 289.203125 49.253906 300.953125 63.75 300.953125 L 311.25 300.953125 C 325.746094 300.953125 337.5 289.203125 337.5 274.703125 L 337.5 100.296875 C 337.5 85.796875 325.746094 74.046875 311.25 74.046875 L 63.75 74.046875 C 49.253906 74.046875 37.5 85.796875 37.5 100.296875 Z M 37.5 100.296875 " clip-rule="nonzero"/></clipPath><clipPath id="555243b72b"><path d="M 64.648438 74.945312 L 310.351562 74.945312 C 324.847656 74.945312 336.601562 86.699219 336.601562 101.195312 L 336.601562 273.804688 C 336.601562 288.300781 324.847656 300.054688 310.351562 300.054688 L 64.648438 300.054688 C 50.152344 300.054688 38.398438 288.300781 38.398438 273.804688 L 38.398438 101.195312 C 38.398438 86.699219 50.152344 74.945312 64.648438 74.945312 Z M 64.648438 74.945312 " clip-rule="nonzero"/></clipPath><clipPath id="87b42f6dc5"><path d="M 213 189 L 317 189 L 317 300.546875 L 213 300.546875 Z M 213 189 " clip-rule="nonzero"/></clipPath><clipPath id="9a2d02249c"><path d="M 37.5 100.296875 L 37.5 274.703125 C 37.5 289.203125 49.253906 300.953125 63.75 300.953125 L 311.25 300.953125 C 325.746094 300.953125 337.5 289.203125 337.5 274.703125 L 337.5 100.296875 C 337.5 85.796875 325.746094 74.046875 311.25 74.046875 L 63.75 74.046875 C 49.253906 74.046875 37.5 85.796875 37.5 100.296875 Z M 37.5 100.296875 " clip-rule="nonzero"/></clipPath><clipPath id="62432cf30b"><path d="M 64.648438 74.945312 L 310.351562 74.945312 C 324.847656 74.945312 336.601562 86.699219 336.601562 101.195312 L 336.601562 273.804688 C 336.601562 288.300781 324.847656 300.054688 310.351562 300.054688 L 64.648438 300.054688 C 50.152344 300.054688 38.398438 288.300781 38.398438 273.804688 L 38.398438 101.195312 C 38.398438 86.699219 50.152344 74.945312 64.648438 74.945312 Z M 64.648438 74.945312 " clip-rule="nonzero"/></clipPath><clipPath id="9e1d2a6d43"><path d="M 37.5 74.046875 L 337.5 74.046875 L 337.5 301 L 37.5 301 Z M 37.5 74.046875 " clip-rule="nonzero"/></clipPath><clipPath id="5450d9b104"><path d="M 37.5 100.296875 L 37.5 274.703125 C 37.5 289.203125 49.253906 300.953125 63.75 300.953125 L 311.25 300.953125 C 325.746094 300.953125 337.5 289.203125 337.5 274.703125 L 337.5 100.296875 C 337.5 85.796875 325.746094 74.046875 311.25 74.046875 L 63.75 74.046875 C 49.253906 74.046875 37.5 85.796875 37.5 100.296875 Z M 37.5 100.296875 " clip-rule="nonzero"/></clipPath><clipPath id="71f05a7927"><path d="M 37.5 100.292969 L 37.5 274.695312 C 37.5 289.191406 49.253906 300.945312 63.75 300.945312 L 311.25 300.945312 C 325.746094 300.945312 337.5 289.191406 337.5 274.695312 L 337.5 100.292969 C 337.5 85.796875 325.746094 74.046875 311.25 74.046875 L 63.75 74.046875 C 49.253906 74.046875 37.5 85.796875 37.5 100.292969 Z M 37.5 100.292969 " clip-rule="nonzero"/></clipPath><clipPath id="51218a40ef"><path d="M 166.589844 103.753906 L 208.589844 103.753906 L 208.589844 135 L 166.589844 135 Z M 166.589844 103.753906 " clip-rule="nonzero"/></clipPath><clipPath id="a6ad5a9454"><path d="M 166.589844 130 L 208.589844 130 L 208.589844 161 L 166.589844 161 Z M 166.589844 130 " clip-rule="nonzero"/></clipPath><clipPath id="a243629277"><path d="M 166.589844 156 L 208.589844 156 L 208.589844 187.753906 L 166.589844 187.753906 Z M 166.589844 156 " clip-rule="nonzero"/></clipPath></defs><g clip-path="url(#a2c22e440e)"><g clip-path="url(#94acd3caf7)"><g clip-path="url(#afe2fc321a)"><path fill="#f0f8ff" d="M 313.65625 298.003906 L 61.40625 298.003906 C 50.066406 298.003906 40.871094 288.8125 40.871094 277.472656 L 40.871094 97.511719 C 40.871094 86.171875 50.066406 76.980469 61.40625 76.980469 L 313.65625 76.980469 C 324.996094 76.980469 334.1875 86.171875 334.1875 97.511719 L 334.1875 277.472656 C 334.1875 288.8125 324.996094 298.003906 313.65625 298.003906 Z M 313.65625 298.003906 " fill-opacity="1" fill-rule="nonzero"/></g></g></g><g clip-path="url(#8cd2f2a988)"><g clip-path="url(#8c4e6b7fbd)"><g clip-path="url(#c9eff2be8c)"><path fill="#563300" d="M 313.65625 300.9375 L 61.40625 300.9375 C 48.464844 300.9375 37.941406 290.410156 37.941406 277.472656 L 37.941406 97.511719 C 37.941406 84.570312 48.464844 74.046875 61.40625 74.046875 L 313.65625 74.046875 C 326.59375 74.046875 337.121094 84.570312 337.121094 97.511719 L 337.121094 277.472656 C 337.121094 290.410156 326.59375 300.9375 313.65625 300.9375 Z M 61.40625 79.910156 C 51.699219 79.910156 43.804688 87.804688 43.804688 97.511719 L 43.804688 277.472656 C 43.804688 287.179688 51.699219 295.070312 61.40625 295.070312 L 313.65625 295.070312 C 323.359375 295.070312 331.253906 287.179688 331.253906 277.472656 L 331.253906 97.511719 C 331.253906 87.804688 323.359375 79.910156 313.65625 79.910156 Z M 61.40625 79.910156 " fill-opacity="1" fill-rule="nonzero"/></g></g></g><g clip-path="url(#2d9d11d96c)"><g clip-path="url(#3fecc69c85)"><g clip-path="url(#30c0b8cae7)"><path fill="#563300" d="M 187.53125 210.703125 C 183.570312 210.703125 179.613281 209.539062 176.160156 207.214844 L 39.234375 114.988281 C 37.890625 114.082031 37.535156 112.257812 38.441406 110.914062 C 39.347656 109.574219 41.167969 109.214844 42.511719 110.121094 L 179.433594 202.347656 C 184.351562 205.660156 190.703125 205.660156 195.625 202.347656 L 332.546875 110.121094 C 333.894531 109.214844 335.714844 109.574219 336.621094 110.914062 C 337.523438 112.257812 337.167969 114.082031 335.824219 114.988281 L 198.898438 207.214844 C 195.445312 209.539062 191.488281 210.703125 187.53125 210.703125 Z M 187.53125 210.703125 " fill-opacity="1" fill-rule="nonzero"/></g></g></g><g clip-path="url(#5b0a4ce741)"><g clip-path="url(#3b7ab253b7)"><g clip-path="url(#555243b72b)"><path fill="#563300" d="M 61.402344 300.9375 C 60.695312 300.9375 59.984375 300.683594 59.417969 300.164062 C 58.226562 299.066406 58.148438 297.210938 59.246094 296.019531 L 156.738281 190.0625 C 157.835938 188.871094 159.6875 188.792969 160.882812 189.890625 C 162.074219 190.988281 162.152344 192.84375 161.054688 194.035156 L 63.5625 299.992188 C 62.984375 300.621094 62.195312 300.9375 61.402344 300.9375 Z M 61.402344 300.9375 " fill-opacity="1" fill-rule="nonzero"/></g></g></g><g clip-path="url(#87b42f6dc5)"><g clip-path="url(#9a2d02249c)"><g clip-path="url(#62432cf30b)"><path fill="#563300" d="M 313.65625 300.9375 C 312.863281 300.9375 312.074219 300.621094 311.496094 299.992188 L 214.003906 194.035156 C 212.90625 192.84375 212.984375 190.988281 214.175781 189.890625 C 215.371094 188.792969 217.226562 188.871094 218.320312 190.0625 L 315.8125 296.019531 C 316.910156 297.210938 316.832031 299.066406 315.640625 300.164062 C 315.078125 300.683594 314.367188 300.9375 313.65625 300.9375 Z M 313.65625 300.9375 " fill-opacity="1" fill-rule="nonzero"/></g></g></g><g clip-path="url(#9e1d2a6d43)"><g clip-path="url(#5450d9b104)"><g clip-path="url(#71f05a7927)"><path stroke-linecap="butt" transform="matrix(0.75, 0, 0, 0.75, 37.500002, 74.045453)" fill="none" stroke-linejoin="miter" d="M -0.00000271667 34.996693 L -0.00000271667 267.533181 C -0.00000271667 286.861309 15.671873 302.533186 35 302.533186 L 365.000021 302.533186 C 384.328148 302.533186 400.000024 286.861309 400.000024 267.533181 L 400.000024 34.996693 C 400.000024 15.668565 384.328148 0.00189635 365.000021 0.00189635 L 35 0.00189635 C 15.671873 0.00189635 -0.00000271667 15.668565 -0.00000271667 34.996693 Z M -0.00000271667 34.996693 " stroke="#563300" stroke-width="30" stroke-opacity="1" stroke-miterlimit="4"/></g></g></g><g clip-path="url(#51218a40ef)"><path fill="#807362" d="M 166.402344 103.800781 L 166.402344 118.78125 L 187.667969 134.273438 L 208.589844 118.777344 L 208.589844 103.789062 L 187.433594 118.253906 Z M 166.402344 103.800781 " fill-opacity="1" fill-rule="evenodd"/></g><g clip-path="url(#a6ad5a9454)"><path fill="#624926" d="M 187.433594 144.949219 L 208.589844 130.488281 L 208.589844 145.472656 L 187.667969 160.964844 L 166.402344 145.476562 L 166.402344 130.5 Z M 187.433594 144.949219 " fill-opacity="1" fill-rule="evenodd"/></g><g clip-path="url(#a243629277)"><path fill="#563300" d="M 187.433594 171.449219 L 208.589844 156.988281 L 208.589844 171.972656 L 187.667969 187.464844 L 166.402344 171.976562 L 166.402344 157 Z M 187.433594 171.449219 " fill-opacity="1" fill-rule="evenodd"/></g><g fill="#563300" fill-opacity="1"><g transform="translate(110.091793, 274.9738)"><g><path d="M 5.921875 1.921875 L 8.015625 1.921875 L 8.015625 -0.359375 C 7.671875 -0.191406 7.320312 -0.0546875 6.96875 0.046875 C 6.613281 0.148438 6.25 0.203125 5.875 0.203125 C 5.101562 0.203125 4.394531 0.0625 3.75 -0.21875 C 3.101562 -0.5 2.546875 -0.878906 2.078125 -1.359375 C 1.609375 -1.847656 1.242188 -2.414062 0.984375 -3.0625 C 0.722656 -3.71875 0.59375 -4.414062 0.59375 -5.15625 C 0.59375 -5.875 0.722656 -6.550781 0.984375 -7.1875 C 1.242188 -7.832031 1.601562 -8.394531 2.0625 -8.875 C 2.519531 -9.351562 3.066406 -9.726562 3.703125 -10 C 4.347656 -10.28125 5.054688 -10.421875 5.828125 -10.421875 C 6.234375 -10.421875 6.613281 -10.378906 6.96875 -10.296875 C 7.332031 -10.222656 7.679688 -10.113281 8.015625 -9.96875 L 8.015625 -10.421875 L 11.015625 -10.421875 L 11.015625 1.921875 L 12.515625 1.921875 L 12.515625 4.59375 L 5.921875 4.59375 Z M 6.0625 -2.515625 C 6.46875 -2.515625 6.835938 -2.609375 7.171875 -2.796875 C 7.503906 -2.984375 7.785156 -3.238281 8.015625 -3.5625 L 8.015625 -6.703125 C 7.785156 -7.015625 7.492188 -7.257812 7.140625 -7.4375 C 6.796875 -7.625 6.425781 -7.71875 6.03125 -7.71875 C 5.695312 -7.71875 5.378906 -7.65625 5.078125 -7.53125 C 4.785156 -7.414062 4.523438 -7.242188 4.296875 -7.015625 C 4.078125 -6.785156 3.898438 -6.507812 3.765625 -6.1875 C 3.640625 -5.875 3.578125 -5.519531 3.578125 -5.125 C 3.578125 -4.71875 3.640625 -4.351562 3.765625 -4.03125 C 3.898438 -3.707031 4.082031 -3.429688 4.3125 -3.203125 C 4.539062 -2.984375 4.800781 -2.8125 5.09375 -2.6875 C 5.394531 -2.570312 5.71875 -2.515625 6.0625 -2.515625 Z M 6.0625 -2.515625 "/></g></g></g><g fill="#563300" fill-opacity="1"><g transform="translate(123.104286, 274.9738)"><g><path d="M 7.0625 -10.125 L 11.84375 -10.125 L 11.84375 -2.671875 L 13.0625 -2.671875 L 13.0625 0 L 8.78125 0 L 8.78125 -0.859375 C 8.4375 -0.546875 8.03125 -0.300781 7.5625 -0.125 C 7.101562 0.0390625 6.570312 0.125 5.96875 0.125 C 5.40625 0.125 4.875 0.0351562 4.375 -0.140625 C 3.882812 -0.316406 3.457031 -0.582031 3.09375 -0.9375 C 2.726562 -1.289062 2.4375 -1.734375 2.21875 -2.265625 C 2.007812 -2.804688 1.90625 -3.4375 1.90625 -4.15625 L 1.90625 -7.4375 L 0.59375 -7.4375 L 0.59375 -10.125 L 5.0625 -10.125 L 5.0625 -4.15625 C 5.0625 -3.476562 5.234375 -2.972656 5.578125 -2.640625 C 5.921875 -2.304688 6.367188 -2.140625 6.921875 -2.140625 C 7.316406 -2.140625 7.671875 -2.257812 7.984375 -2.5 C 8.304688 -2.738281 8.539062 -3.066406 8.6875 -3.484375 L 8.6875 -7.4375 L 7.0625 -7.4375 Z M 7.0625 -10.125 "/></g></g></g><g fill="#563300" fill-opacity="1"><g transform="translate(136.868437, 274.9738)"><g><path d="M 0.78125 -10.125 L 5.328125 -10.125 L 5.328125 -2.671875 L 6.734375 -2.671875 L 6.734375 0 L 0.78125 0 L 0.78125 -2.671875 L 2.3125 -2.671875 L 2.3125 -7.4375 L 0.78125 -7.4375 Z M 2.15625 -13.375 C 2.15625 -13.613281 2.195312 -13.835938 2.28125 -14.046875 C 2.363281 -14.265625 2.484375 -14.453125 2.640625 -14.609375 C 2.796875 -14.765625 2.976562 -14.890625 3.1875 -14.984375 C 3.40625 -15.078125 3.640625 -15.125 3.890625 -15.125 C 4.117188 -15.125 4.335938 -15.078125 4.546875 -14.984375 C 4.753906 -14.890625 4.9375 -14.765625 5.09375 -14.609375 C 5.25 -14.453125 5.375 -14.265625 5.46875 -14.046875 C 5.5625 -13.835938 5.609375 -13.613281 5.609375 -13.375 C 5.609375 -13.132812 5.5625 -12.910156 5.46875 -12.703125 C 5.375 -12.492188 5.25 -12.3125 5.09375 -12.15625 C 4.9375 -12 4.753906 -11.875 4.546875 -11.78125 C 4.335938 -11.6875 4.117188 -11.640625 3.890625 -11.640625 C 3.640625 -11.640625 3.40625 -11.6875 3.1875 -11.78125 C 2.976562 -11.875 2.796875 -12 2.640625 -12.15625 C 2.484375 -12.3125 2.363281 -12.492188 2.28125 -12.703125 C 2.195312 -12.910156 2.15625 -13.132812 2.15625 -13.375 Z M 2.15625 -13.375 "/></g></g></g><g fill="#563300" fill-opacity="1"><g transform="translate(144.580267, 274.9738)"><g><path d="M 10.796875 -10.296875 C 10.429688 -10.816406 10.101562 -11.1875 9.8125 -11.40625 C 9.519531 -11.625 9.203125 -11.78125 8.859375 -11.875 C 8.523438 -11.96875 8.171875 -12.015625 7.796875 -12.015625 C 7.253906 -12.015625 6.75 -11.894531 6.28125 -11.65625 C 5.8125 -11.414062 5.40625 -11.082031 5.0625 -10.65625 C 4.71875 -10.238281 4.445312 -9.75 4.25 -9.1875 C 4.0625 -8.632812 3.96875 -8.046875 3.96875 -7.421875 C 3.96875 -6.785156 4.0625 -6.191406 4.25 -5.640625 C 4.445312 -5.085938 4.710938 -4.601562 5.046875 -4.1875 C 5.390625 -3.769531 5.796875 -3.4375 6.265625 -3.1875 C 6.734375 -2.945312 7.242188 -2.828125 7.796875 -2.828125 C 8.191406 -2.828125 8.554688 -2.890625 8.890625 -3.015625 C 9.234375 -3.140625 9.539062 -3.304688 9.8125 -3.515625 C 10.09375 -3.722656 10.335938 -3.960938 10.546875 -4.234375 C 10.753906 -4.503906 10.914062 -4.785156 11.03125 -5.078125 L 14.1875 -4.203125 C 13.976562 -3.566406 13.675781 -2.972656 13.28125 -2.421875 C 12.894531 -1.878906 12.425781 -1.410156 11.875 -1.015625 C 11.332031 -0.617188 10.71875 -0.304688 10.03125 -0.078125 C 9.34375 0.148438 8.597656 0.265625 7.796875 0.265625 C 7.128906 0.265625 6.488281 0.175781 5.875 0 C 5.269531 -0.1875 4.703125 -0.445312 4.171875 -0.78125 C 3.640625 -1.113281 3.15625 -1.515625 2.71875 -1.984375 C 2.289062 -2.453125 1.921875 -2.96875 1.609375 -3.53125 C 1.304688 -4.101562 1.066406 -4.71875 0.890625 -5.375 C 0.722656 -6.03125 0.640625 -6.710938 0.640625 -7.421875 C 0.640625 -8.484375 0.828125 -9.476562 1.203125 -10.40625 C 1.578125 -11.332031 2.082031 -12.140625 2.71875 -12.828125 C 3.363281 -13.523438 4.117188 -14.070312 4.984375 -14.46875 C 5.859375 -14.875 6.796875 -15.078125 7.796875 -15.078125 C 8.597656 -15.078125 9.269531 -14.976562 9.8125 -14.78125 C 10.363281 -14.582031 10.96875 -14.191406 11.625 -13.609375 L 13.8125 -13.609375 L 13.8125 -10.296875 Z M 10.796875 -10.296875 "/></g></g></g><g fill="#563300" fill-opacity="1"><g transform="translate(159.750119, 274.9738)"><g><path d="M 1.109375 -14.8125 L 7.4375 -14.8125 L 7.4375 -12.125 L 5.875 -12.125 L 5.875 -7.8125 L 10.609375 -11.9375 L 10.609375 -14.8125 L 15.671875 -14.8125 L 15.671875 -11.921875 L 14.5625 -11.921875 L 9.625 -7.6875 L 14.359375 -2.90625 L 15.5625 -2.90625 L 15.5625 0 L 10.640625 0 L 10.640625 -2.90625 L 5.875 -7.671875 L 5.875 -2.671875 L 7.4375 -2.671875 L 7.4375 0 L 1.109375 0 L 1.109375 -2.671875 L 2.640625 -2.671875 L 2.640625 -12.125 L 1.109375 -12.125 Z M 1.109375 -14.8125 "/></g></g></g><g fill="#563300" fill-opacity="1"><g transform="translate(175.905913, 274.9738)"><g><path d="M 0.796875 -10.125 L 5.4375 -10.125 L 5.4375 -9.234375 C 5.851562 -9.566406 6.320312 -9.832031 6.84375 -10.03125 C 7.363281 -10.226562 7.898438 -10.328125 8.453125 -10.328125 C 9.210938 -10.328125 9.867188 -10.191406 10.421875 -9.921875 C 10.972656 -9.648438 11.40625 -9.238281 11.71875 -8.6875 C 11.9375 -8.925781 12.179688 -9.144531 12.453125 -9.34375 C 12.722656 -9.539062 13.007812 -9.710938 13.3125 -9.859375 C 13.613281 -10.003906 13.929688 -10.117188 14.265625 -10.203125 C 14.609375 -10.285156 14.953125 -10.328125 15.296875 -10.328125 C 16.535156 -10.328125 17.488281 -9.984375 18.15625 -9.296875 C 18.820312 -8.609375 19.15625 -7.609375 19.15625 -6.296875 L 19.15625 -2.671875 L 20.59375 -2.671875 L 20.59375 0 L 15.96875 0 L 15.96875 -5.796875 C 15.96875 -6.367188 15.816406 -6.816406 15.515625 -7.140625 C 15.222656 -7.472656 14.8125 -7.640625 14.28125 -7.640625 C 13.914062 -7.640625 13.570312 -7.550781 13.25 -7.375 C 12.9375 -7.207031 12.617188 -6.910156 12.296875 -6.484375 C 12.304688 -6.410156 12.3125 -6.335938 12.3125 -6.265625 C 12.3125 -6.191406 12.3125 -6.113281 12.3125 -6.03125 L 12.3125 -2.671875 L 13.765625 -2.671875 L 13.765625 0 L 9.15625 0 L 9.15625 -5.828125 C 9.15625 -6.097656 9.109375 -6.34375 9.015625 -6.5625 C 8.929688 -6.78125 8.816406 -6.96875 8.671875 -7.125 C 8.523438 -7.28125 8.347656 -7.398438 8.140625 -7.484375 C 7.929688 -7.578125 7.707031 -7.628906 7.46875 -7.640625 C 7.132812 -7.640625 6.789062 -7.566406 6.4375 -7.421875 C 6.09375 -7.273438 5.765625 -7 5.453125 -6.59375 L 5.453125 -2.671875 L 7.078125 -2.671875 L 7.078125 0 L 0.78125 0 L 0.78125 -2.671875 L 2.28125 -2.671875 L 2.28125 -7.4375 L 0.796875 -7.4375 Z M 0.796875 -10.125 "/></g></g></g><g fill="#563300" fill-opacity="1"><g transform="translate(196.952375, 274.9738)"><g><path d="M 7 -0.546875 C 6.769531 -0.398438 6.5625 -0.273438 6.375 -0.171875 C 6.1875 -0.078125 6 0 5.8125 0.0625 C 5.625 0.125 5.425781 0.171875 5.21875 0.203125 C 5.019531 0.234375 4.800781 0.25 4.5625 0.25 C 3.957031 0.25 3.414062 0.164062 2.9375 0 C 2.457031 -0.164062 2.050781 -0.394531 1.71875 -0.6875 C 1.394531 -0.976562 1.144531 -1.320312 0.96875 -1.71875 C 0.789062 -2.113281 0.703125 -2.539062 0.703125 -3 C 0.703125 -3.46875 0.789062 -3.898438 0.96875 -4.296875 C 1.144531 -4.691406 1.398438 -5.03125 1.734375 -5.3125 C 2.078125 -5.601562 2.492188 -5.828125 2.984375 -5.984375 C 3.484375 -6.140625 4.046875 -6.21875 4.671875 -6.21875 C 5.140625 -6.21875 5.5625 -6.191406 5.9375 -6.140625 C 6.320312 -6.097656 6.675781 -6.039062 7 -5.96875 L 7 -6.28125 C 7 -6.53125 6.945312 -6.75 6.84375 -6.9375 C 6.75 -7.125 6.613281 -7.273438 6.4375 -7.390625 C 6.269531 -7.515625 6.0625 -7.601562 5.8125 -7.65625 C 5.5625 -7.71875 5.289062 -7.75 5 -7.75 C 4.382812 -7.75 3.84375 -7.6875 3.375 -7.5625 C 2.914062 -7.445312 2.472656 -7.273438 2.046875 -7.046875 L 1.109375 -8.9375 C 1.765625 -9.394531 2.457031 -9.742188 3.1875 -9.984375 C 3.914062 -10.222656 4.6875 -10.34375 5.5 -10.34375 C 6.132812 -10.34375 6.71875 -10.269531 7.25 -10.125 C 7.789062 -9.988281 8.25 -9.757812 8.625 -9.4375 C 9.007812 -9.125 9.3125 -8.710938 9.53125 -8.203125 C 9.75 -7.703125 9.859375 -7.085938 9.859375 -6.359375 L 9.859375 -2.671875 L 11.21875 -2.671875 L 11.21875 0 L 7 0 Z M 4.78125 -2.0625 C 5.238281 -2.0625 5.65625 -2.132812 6.03125 -2.28125 C 6.414062 -2.4375 6.738281 -2.617188 7 -2.828125 L 7 -4.125 L 4.65625 -4.125 C 4.507812 -4.125 4.363281 -4.097656 4.21875 -4.046875 C 4.070312 -4.003906 3.941406 -3.941406 3.828125 -3.859375 C 3.710938 -3.773438 3.617188 -3.671875 3.546875 -3.546875 C 3.484375 -3.421875 3.453125 -3.273438 3.453125 -3.109375 C 3.453125 -2.816406 3.5625 -2.566406 3.78125 -2.359375 C 4 -2.160156 4.332031 -2.0625 4.78125 -2.0625 Z M 4.78125 -2.0625 "/></g></g></g><g fill="#563300" fill-opacity="1"><g transform="translate(209.447492, 274.9738)"><g><path d="M 0.78125 -10.125 L 5.328125 -10.125 L 5.328125 -2.671875 L 6.734375 -2.671875 L 6.734375 0 L 0.78125 0 L 0.78125 -2.671875 L 2.3125 -2.671875 L 2.3125 -7.4375 L 0.78125 -7.4375 Z M 2.15625 -13.375 C 2.15625 -13.613281 2.195312 -13.835938 2.28125 -14.046875 C 2.363281 -14.265625 2.484375 -14.453125 2.640625 -14.609375 C 2.796875 -14.765625 2.976562 -14.890625 3.1875 -14.984375 C 3.40625 -15.078125 3.640625 -15.125 3.890625 -15.125 C 4.117188 -15.125 4.335938 -15.078125 4.546875 -14.984375 C 4.753906 -14.890625 4.9375 -14.765625 5.09375 -14.609375 C 5.25 -14.453125 5.375 -14.265625 5.46875 -14.046875 C 5.5625 -13.835938 5.609375 -13.613281 5.609375 -13.375 C 5.609375 -13.132812 5.5625 -12.910156 5.46875 -12.703125 C 5.375 -12.492188 5.25 -12.3125 5.09375 -12.15625 C 4.9375 -12 4.753906 -11.875 4.546875 -11.78125 C 4.335938 -11.6875 4.117188 -11.640625 3.890625 -11.640625 C 3.640625 -11.640625 3.40625 -11.6875 3.1875 -11.78125 C 2.976562 -11.875 2.796875 -12 2.640625 -12.15625 C 2.484375 -12.3125 2.363281 -12.492188 2.28125 -12.703125 C 2.195312 -12.910156 2.15625 -13.132812 2.15625 -13.375 Z M 2.15625 -13.375 "/></g></g></g><g fill="#563300" fill-opacity="1"><g transform="translate(217.159321, 274.9738)"><g><path d="M 0.578125 -15.203125 L 5.140625 -15.203125 L 5.140625 -2.671875 L 6.703125 -2.671875 L 6.703125 0 L 0.578125 0 L 0.578125 -2.671875 L 2.140625 -2.671875 L 2.140625 -12.515625 L 0.578125 -12.515625 Z M 0.578125 -15.203125 "/></g></g></g><g fill="#563300" fill-opacity="1"><g transform="translate(224.773533, 274.9738)"><g><path d="M 0.78125 -10.125 L 5.328125 -10.125 L 5.328125 -2.671875 L 6.734375 -2.671875 L 6.734375 0 L 0.78125 0 L 0.78125 -2.671875 L 2.3125 -2.671875 L 2.3125 -7.4375 L 0.78125 -7.4375 Z M 2.15625 -13.375 C 2.15625 -13.613281 2.195312 -13.835938 2.28125 -14.046875 C 2.363281 -14.265625 2.484375 -14.453125 2.640625 -14.609375 C 2.796875 -14.765625 2.976562 -14.890625 3.1875 -14.984375 C 3.40625 -15.078125 3.640625 -15.125 3.890625 -15.125 C 4.117188 -15.125 4.335938 -15.078125 4.546875 -14.984375 C 4.753906 -14.890625 4.9375 -14.765625 5.09375 -14.609375 C 5.25 -14.453125 5.375 -14.265625 5.46875 -14.046875 C 5.5625 -13.835938 5.609375 -13.613281 5.609375 -13.375 C 5.609375 -13.132812 5.5625 -12.910156 5.46875 -12.703125 C 5.375 -12.492188 5.25 -12.3125 5.09375 -12.15625 C 4.9375 -12 4.753906 -11.875 4.546875 -11.78125 C 4.335938 -11.6875 4.117188 -11.640625 3.890625 -11.640625 C 3.640625 -11.640625 3.40625 -11.6875 3.1875 -11.78125 C 2.976562 -11.875 2.796875 -12 2.640625 -12.15625 C 2.484375 -12.3125 2.363281 -12.492188 2.28125 -12.703125 C 2.195312 -12.910156 2.15625 -13.132812 2.15625 -13.375 Z M 2.15625 -13.375 "/></g></g></g><g fill="#563300" fill-opacity="1"><g transform="translate(232.485363, 274.9738)"><g><path d="M 9.109375 -5.828125 C 9.109375 -6.390625 8.957031 -6.832031 8.65625 -7.15625 C 8.351562 -7.476562 7.957031 -7.640625 7.46875 -7.640625 C 7.125 -7.640625 6.78125 -7.5625 6.4375 -7.40625 C 6.09375 -7.257812 5.757812 -6.984375 5.4375 -6.578125 L 5.4375 -2.671875 L 7.078125 -2.671875 L 7.078125 0 L 0.78125 0 L 0.78125 -2.671875 L 2.265625 -2.671875 L 2.265625 -7.4375 L 0.796875 -7.4375 L 0.796875 -10.125 L 5.40625 -10.125 L 5.40625 -9.234375 C 5.832031 -9.566406 6.304688 -9.828125 6.828125 -10.015625 C 7.359375 -10.203125 7.910156 -10.296875 8.484375 -10.296875 C 9.703125 -10.296875 10.640625 -9.957031 11.296875 -9.28125 C 11.953125 -8.601562 12.28125 -7.609375 12.28125 -6.296875 L 12.28125 -2.671875 L 13.71875 -2.671875 L 13.71875 0 L 9.109375 0 Z M 9.109375 -5.828125 "/></g></g></g><g fill="#563300" fill-opacity="1"><g transform="translate(246.737605, 274.9738)"><g><path d="M 0.578125 -15.203125 L 5.140625 -15.203125 L 5.140625 -6.4375 L 6.84375 -6.4375 L 7.546875 -7.4375 L 7.546875 -10.125 L 12.78125 -10.125 L 12.78125 -7.4375 L 10.96875 -7.4375 L 9.078125 -5.265625 L 11 -2.9375 L 12.6875 -2.9375 L 12.6875 0 L 9.9375 0 L 6.65625 -4.34375 L 5.140625 -4.34375 L 5.140625 -2.671875 L 6.171875 -2.671875 L 6.171875 0 L 0.578125 0 L 0.578125 -2.671875 L 2.140625 -2.671875 L 2.140625 -12.515625 L 0.578125 -12.515625 Z M 0.578125 -15.203125 "/></g></g></g><g fill="#563300" fill-opacity="1"><g transform="translate(260.900381, 274.9738)"><g/></g></g></svg>